<svg width="496" height="536" viewBox="0 0 496 536" fill="none" xmlns="http://www.w3.org/2000/svg">
<path d="M0 518L33.1649 535.562L31.7916 498.059L0 518ZM356.02 192.447C354.886 191.056 352.839 190.847 351.447 191.98C350.056 193.114 349.847 195.161 350.98 196.553L353.5 194.5L356.02 192.447ZM29.2405 516.929L29.3963 520.176C71.3352 518.163 151.912 512.552 227.842 497.403C265.8 489.83 302.722 479.849 333.118 466.681C363.413 453.556 387.733 437.05 399.815 416.125L397 414.5L394.185 412.875C383.166 431.961 360.436 447.762 330.534 460.717C300.731 473.628 264.307 483.5 226.57 491.029C151.111 506.084 70.9097 511.676 29.0847 513.683L29.2405 516.929ZM397 414.5L399.815 416.125C428.723 366.054 417.408 309.829 399.358 266.683C390.306 245.047 379.486 226.511 370.936 213.39C366.658 206.825 362.943 201.606 360.291 198.021C358.965 196.229 357.904 194.844 357.171 193.903C356.805 193.432 356.521 193.073 356.326 192.829C356.229 192.707 356.154 192.614 356.103 192.55C356.077 192.518 356.057 192.493 356.043 192.476C356.036 192.468 356.031 192.461 356.027 192.456C356.025 192.454 356.023 192.452 356.022 192.45C356.021 192.449 356.02 192.447 353.5 194.5C350.98 196.553 350.98 196.552 350.98 196.552C350.981 196.553 350.981 196.554 350.982 196.555C350.984 196.558 350.988 196.562 350.993 196.568C351.003 196.581 351.02 196.601 351.042 196.628C351.086 196.683 351.153 196.767 351.243 196.88C351.423 197.105 351.692 197.446 352.043 197.896C352.744 198.797 353.773 200.14 355.065 201.887C357.651 205.382 361.291 210.495 365.49 216.938C373.892 229.833 384.502 248.016 393.361 269.192C411.133 311.671 421.568 365.446 394.185 412.875L397 414.5Z" fill="white"/>
<path d="M67.552 23.56L83.104 63.624C83.7013 65.16 84.3627 66.2267 85.088 66.824C85.856 67.3787 86.5387 67.6773 87.136 67.72V69C85.856 68.9147 84.3413 68.872 82.592 68.872C80.8853 68.8293 79.1573 68.808 77.408 68.808C75.4453 68.808 73.5893 68.8293 71.84 68.872C70.0907 68.872 68.704 68.9147 67.68 69V67.72C69.856 67.6347 71.2213 67.272 71.776 66.632C72.3733 65.9493 72.2453 64.52 71.392 62.344L60.512 32.584L61.664 30.92L51.936 56.264C50.9973 58.6107 50.4213 60.5307 50.208 62.024C50.0373 63.5173 50.144 64.6693 50.528 65.48C50.9547 66.2907 51.616 66.8667 52.512 67.208C53.4507 67.5067 54.56 67.6773 55.84 67.72V69C54.432 68.9147 53.088 68.872 51.808 68.872C50.528 68.8293 49.2267 68.808 47.904 68.808C46.9653 68.808 46.0693 68.8293 45.216 68.872C44.4053 68.872 43.68 68.9147 43.04 69V67.72C43.936 67.5493 44.8533 66.9733 45.792 65.992C46.7307 65.0107 47.648 63.3467 48.544 61L63.136 23.56C63.8187 23.6027 64.544 23.624 65.312 23.624C66.1227 23.624 66.8693 23.6027 67.552 23.56ZM72.032 50.568V51.848H52.96L53.6 50.568H72.032ZM104.864 35.016C106.528 35.016 108.042 35.208 109.408 35.592C110.816 35.9333 111.968 36.3813 112.864 36.936C113.973 37.6187 114.826 38.472 115.424 39.496C116.064 40.4773 116.384 41.6293 116.384 42.952C116.384 44.4453 115.914 45.6827 114.976 46.664C114.037 47.6027 112.821 48.072 111.328 48.072C109.834 48.072 108.64 47.6453 107.744 46.792C106.848 45.9387 106.4 44.7867 106.4 43.336C106.4 41.9707 106.826 40.84 107.68 39.944C108.533 39.0053 109.514 38.3867 110.624 38.088C110.282 37.6613 109.77 37.2987 109.088 37C108.405 36.7013 107.637 36.552 106.784 36.552C105.461 36.552 104.288 36.936 103.264 37.704C102.282 38.472 101.45 39.5387 100.768 40.904C100.085 42.2693 99.5515 43.8693 99.1675 45.704C98.8262 47.5387 98.6555 49.544 98.6555 51.72C98.6555 55.0053 99.0608 57.5867 99.8715 59.464C100.725 61.3413 101.792 62.664 103.072 63.432C104.394 64.2 105.76 64.584 107.168 64.584C107.978 64.584 108.853 64.456 109.792 64.2C110.773 63.944 111.754 63.432 112.736 62.664C113.76 61.896 114.698 60.808 115.552 59.4L116.64 59.784C116.17 61.3627 115.402 62.9413 114.336 64.52C113.269 66.0987 111.882 67.4 110.176 68.424C108.469 69.4053 106.378 69.896 103.904 69.896C101.13 69.896 98.6128 69.2987 96.3515 68.104C94.1328 66.8667 92.3408 64.9893 90.9755 62.472C89.6528 59.912 88.9915 56.6267 88.9915 52.616C88.9915 48.776 89.6742 45.5547 91.0395 42.952C92.4475 40.3067 94.3462 38.3227 96.7355 37C99.1248 35.6773 101.834 35.016 104.864 35.016ZM136.614 35.016C138.278 35.016 139.792 35.208 141.158 35.592C142.566 35.9333 143.718 36.3813 144.614 36.936C145.723 37.6187 146.576 38.472 147.174 39.496C147.814 40.4773 148.134 41.6293 148.134 42.952C148.134 44.4453 147.664 45.6827 146.726 46.664C145.787 47.6027 144.571 48.072 143.078 48.072C141.584 48.072 140.39 47.6453 139.494 46.792C138.598 45.9387 138.15 44.7867 138.15 43.336C138.15 41.9707 138.576 40.84 139.43 39.944C140.283 39.0053 141.264 38.3867 142.374 38.088C142.032 37.6613 141.52 37.2987 140.838 37C140.155 36.7013 139.387 36.552 138.534 36.552C137.211 36.552 136.038 36.936 135.014 37.704C134.032 38.472 133.2 39.5387 132.518 40.904C131.835 42.2693 131.302 43.8693 130.918 45.704C130.576 47.5387 130.406 49.544 130.406 51.72C130.406 55.0053 130.811 57.5867 131.622 59.464C132.475 61.3413 133.542 62.664 134.822 63.432C136.144 64.2 137.51 64.584 138.918 64.584C139.728 64.584 140.603 64.456 141.542 64.2C142.523 63.944 143.504 63.432 144.486 62.664C145.51 61.896 146.448 60.808 147.302 59.4L148.39 59.784C147.92 61.3627 147.152 62.9413 146.086 64.52C145.019 66.0987 143.632 67.4 141.926 68.424C140.219 69.4053 138.128 69.896 135.654 69.896C132.88 69.896 130.363 69.2987 128.102 68.104C125.883 66.8667 124.091 64.9893 122.726 62.472C121.403 59.912 120.742 56.6267 120.742 52.616C120.742 48.776 121.424 45.5547 122.79 42.952C124.198 40.3067 126.096 38.3227 128.486 37C130.875 35.6773 133.584 35.016 136.614 35.016ZM168.236 35.016C171.99 35.016 174.934 36.1253 177.068 38.344C179.201 40.5627 180.268 44.1893 180.268 49.224H159.212L159.084 48.008H172.204C172.246 45.9173 172.118 43.9973 171.82 42.248C171.521 40.456 171.052 39.0267 170.412 37.96C169.772 36.8933 168.918 36.36 167.852 36.36C166.358 36.36 165.078 37.2987 164.012 39.176C162.988 41.0533 162.369 44.168 162.156 48.52L162.348 48.904C162.305 49.416 162.262 49.9493 162.22 50.504C162.22 51.0587 162.22 51.6347 162.22 52.232C162.22 55.176 162.625 57.5653 163.436 59.4C164.289 61.2347 165.356 62.5787 166.635 63.432C167.916 64.2427 169.217 64.648 170.54 64.648C171.436 64.648 172.353 64.52 173.292 64.264C174.273 63.9653 175.254 63.4533 176.236 62.728C177.217 61.96 178.134 60.8933 178.988 59.528L180.14 59.912C179.628 61.5333 178.817 63.112 177.708 64.648C176.598 66.184 175.19 67.4427 173.484 68.424C171.777 69.4053 169.729 69.896 167.34 69.896C164.438 69.896 161.878 69.2773 159.66 68.04C157.441 66.8027 155.692 64.9253 154.411 62.408C153.174 59.8907 152.556 56.6907 152.556 52.808C152.556 48.84 153.217 45.5333 154.54 42.888C155.905 40.2427 157.761 38.28 160.108 37C162.497 35.6773 165.206 35.016 168.236 35.016ZM197.03 35.208V74.248C197.03 76.2533 197.542 77.576 198.566 78.216C199.59 78.8987 200.998 79.24 202.79 79.24V80.584C201.68 80.5413 200.144 80.4773 198.182 80.392C196.262 80.3493 194.214 80.328 192.038 80.328C190.459 80.328 188.902 80.3493 187.366 80.392C185.872 80.4773 184.742 80.5413 183.974 80.584V79.24C185.382 79.24 186.363 78.9413 186.918 78.344C187.515 77.7467 187.814 76.5947 187.814 74.888V42.888C187.814 40.968 187.515 39.56 186.918 38.664C186.32 37.7253 185.254 37.256 183.718 37.256V35.912C185.083 36.04 186.406 36.104 187.686 36.104C189.435 36.104 191.099 36.04 192.678 35.912C194.256 35.7413 195.707 35.5067 197.03 35.208ZM206.95 35.016C209.126 35.016 211.067 35.6133 212.774 36.808C214.48 37.96 215.846 39.7307 216.87 42.12C217.894 44.4667 218.406 47.4107 218.406 50.952C218.406 54.0667 218.043 56.7973 217.318 59.144C216.635 61.4907 215.632 63.4747 214.31 65.096C213.03 66.6747 211.472 67.8693 209.638 68.68C207.846 69.4907 205.819 69.896 203.558 69.896C201.894 69.896 200.379 69.5973 199.014 69C197.648 68.4453 196.603 67.6347 195.878 66.568L196.518 65.736C196.944 66.504 197.542 67.1013 198.31 67.528C199.12 67.9547 200.038 68.168 201.062 68.168C202.982 68.168 204.496 67.528 205.606 66.248C206.715 64.9253 207.504 63.0907 207.974 60.744C208.486 58.3547 208.742 55.5173 208.742 52.232C208.742 48.5627 208.507 45.6827 208.038 43.592C207.568 41.5013 206.928 40.008 206.118 39.112C205.307 38.216 204.326 37.768 203.174 37.768C201.638 37.768 200.23 38.3653 198.95 39.56C197.712 40.7547 197.008 42.4613 196.838 44.68L196.518 42.44C197.286 40.008 198.587 38.1733 200.422 36.936C202.299 35.656 204.475 35.016 206.95 35.016ZM235.341 25.416V35.912H242.893V37.192H235.341V63.048C235.341 64.328 235.575 65.2453 236.045 65.8C236.514 66.312 237.218 66.568 238.157 66.568C238.925 66.568 239.693 66.2907 240.461 65.736C241.229 65.1387 241.911 64.136 242.509 62.728L243.597 63.304C242.914 65.224 241.869 66.8027 240.461 68.04C239.095 69.2773 237.218 69.896 234.829 69.896C233.421 69.896 232.183 69.704 231.117 69.32C230.05 68.9787 229.154 68.4453 228.429 67.72C227.49 66.7813 226.871 65.6293 226.573 64.264C226.274 62.856 226.125 61.0427 226.125 58.824V37.192H220.748V35.912H226.125V27.464C227.917 27.464 229.559 27.3147 231.053 27.016C232.589 26.6747 234.018 26.1413 235.341 25.416ZM275.989 35.016C277.653 35.016 279.167 35.208 280.533 35.592C281.941 35.9333 283.093 36.3813 283.989 36.936C285.098 37.6187 285.951 38.472 286.549 39.496C287.189 40.4773 287.509 41.6293 287.509 42.952C287.509 44.4453 287.039 45.6827 286.101 46.664C285.162 47.6027 283.946 48.072 282.453 48.072C280.959 48.072 279.765 47.6453 278.869 46.792C277.973 45.9387 277.525 44.7867 277.525 43.336C277.525 41.9707 277.951 40.84 278.805 39.944C279.658 39.0053 280.639 38.3867 281.749 38.088C281.407 37.6613 280.895 37.2987 280.213 37C279.53 36.7013 278.762 36.552 277.909 36.552C276.586 36.552 275.413 36.936 274.389 37.704C273.407 38.472 272.575 39.5387 271.893 40.904C271.21 42.2693 270.677 43.8693 270.293 45.704C269.951 47.5387 269.781 49.544 269.781 51.72C269.781 55.0053 270.186 57.5867 270.997 59.464C271.85 61.3413 272.917 62.664 274.197 63.432C275.519 64.2 276.885 64.584 278.293 64.584C279.103 64.584 279.978 64.456 280.917 64.2C281.898 63.944 282.879 63.432 283.861 62.664C284.885 61.896 285.823 60.808 286.677 59.4L287.765 59.784C287.295 61.3627 286.527 62.9413 285.461 64.52C284.394 66.0987 283.007 67.4 281.301 68.424C279.594 69.4053 277.503 69.896 275.029 69.896C272.255 69.896 269.738 69.2987 267.477 68.104C265.258 66.8667 263.466 64.9893 262.101 62.472C260.778 59.912 260.117 56.6267 260.117 52.616C260.117 48.776 260.799 45.5547 262.165 42.952C263.573 40.3067 265.471 38.3227 267.861 37C270.25 35.6773 272.959 35.016 275.989 35.016ZM307.611 35.016C310.725 35.016 313.456 35.592 315.803 36.744C318.149 37.896 319.984 39.752 321.307 42.312C322.629 44.872 323.291 48.264 323.291 52.488C323.291 56.712 322.629 60.104 321.307 62.664C319.984 65.1813 318.149 67.016 315.803 68.168C313.456 69.32 310.725 69.896 307.611 69.896C304.581 69.896 301.872 69.32 299.483 68.168C297.136 67.016 295.28 65.1813 293.915 62.664C292.592 60.104 291.931 56.712 291.931 52.488C291.931 48.264 292.592 44.872 293.915 42.312C295.28 39.752 297.136 37.896 299.483 36.744C301.872 35.592 304.581 35.016 307.611 35.016ZM307.611 36.296C305.904 36.296 304.475 37.576 303.323 40.136C302.171 42.6533 301.595 46.7707 301.595 52.488C301.595 58.2053 302.171 62.3227 303.323 64.84C304.475 67.3573 305.904 68.616 307.611 68.616C309.36 68.616 310.789 67.3573 311.899 64.84C313.051 62.3227 313.627 58.2053 313.627 52.488C313.627 46.7707 313.051 42.6533 311.899 40.136C310.789 37.576 309.36 36.296 307.611 36.296ZM343.798 35.016C346.913 35.016 349.643 35.592 351.99 36.744C354.337 37.896 356.171 39.752 357.494 42.312C358.817 44.872 359.478 48.264 359.478 52.488C359.478 56.712 358.817 60.104 357.494 62.664C356.171 65.1813 354.337 67.016 351.99 68.168C349.643 69.32 346.913 69.896 343.798 69.896C340.769 69.896 338.059 69.32 335.67 68.168C333.323 67.016 331.467 65.1813 330.102 62.664C328.779 60.104 328.118 56.712 328.118 52.488C328.118 48.264 328.779 44.872 330.102 42.312C331.467 39.752 333.323 37.896 335.67 36.744C338.059 35.592 340.769 35.016 343.798 35.016ZM343.798 36.296C342.091 36.296 340.662 37.576 339.51 40.136C338.358 42.6533 337.782 46.7707 337.782 52.488C337.782 58.2053 338.358 62.3227 339.51 64.84C340.662 67.3573 342.091 68.616 343.798 68.616C345.547 68.616 346.977 67.3573 348.086 64.84C349.238 62.3227 349.814 58.2053 349.814 52.488C349.814 46.7707 349.238 42.6533 348.086 40.136C346.977 37.576 345.547 36.296 343.798 36.296ZM375.841 18.888V63.048C375.841 64.84 376.118 66.056 376.673 66.696C377.27 67.336 378.273 67.656 379.681 67.656V69C378.87 68.9573 377.675 68.9147 376.097 68.872C374.561 68.7867 372.982 68.744 371.361 68.744C369.697 68.744 368.011 68.7867 366.305 68.872C364.641 68.9147 363.382 68.9573 362.529 69V67.656C364.022 67.656 365.067 67.336 365.665 66.696C366.305 66.056 366.625 64.84 366.625 63.048V26.568C366.625 24.648 366.326 23.24 365.729 22.344C365.174 21.4053 364.107 20.936 362.529 20.936V19.592C363.894 19.72 365.217 19.784 366.497 19.784C368.246 19.784 369.91 19.72 371.489 19.592C373.067 19.4213 374.518 19.1867 375.841 18.888ZM396.705 35.912V37.192C395.382 37.448 394.059 38.0027 392.737 38.856C391.414 39.7093 390.07 40.7973 388.705 42.12L383.777 47.24L384.417 46.024L395.361 64.328C395.83 65.096 396.321 65.7787 396.833 66.376C397.345 66.9733 397.963 67.4 398.689 67.656V69C398.049 68.9573 397.089 68.9147 395.809 68.872C394.529 68.7867 393.249 68.744 391.969 68.744C390.39 68.744 388.811 68.7867 387.233 68.872C385.654 68.9147 384.481 68.9573 383.713 69V67.656C384.566 67.656 385.142 67.464 385.441 67.08C385.739 66.6533 385.697 66.12 385.313 65.48L378.977 54.024C378.465 53.2133 377.953 52.7013 377.441 52.488C376.971 52.232 376.331 52.0827 375.521 52.04V50.824C376.417 50.7387 377.185 50.5893 377.825 50.376C378.507 50.1627 379.126 49.7573 379.681 49.16L384.545 44.424C385.995 43.0587 386.721 41.8427 386.721 40.776C386.721 39.7093 386.251 38.856 385.313 38.216C384.417 37.576 383.222 37.2347 381.729 37.192V35.912C382.923 35.9547 384.225 35.9973 385.633 36.04C387.041 36.0827 388.235 36.104 389.217 36.104C390.07 36.104 390.966 36.104 391.905 36.104C392.886 36.0613 393.803 36.04 394.657 36.04C395.51 35.9973 396.193 35.9547 396.705 35.912ZM408.606 19.4C410.398 19.4 411.806 19.848 412.83 20.744C413.897 21.5973 414.43 22.792 414.43 24.328C414.43 25.864 413.897 27.08 412.83 27.976C411.806 28.8293 410.398 29.256 408.606 29.256C406.814 29.256 405.385 28.8293 404.318 27.976C403.294 27.08 402.782 25.864 402.782 24.328C402.782 22.792 403.294 21.5973 404.318 20.744C405.385 19.848 406.814 19.4 408.606 19.4ZM413.598 35.208V63.048C413.598 64.84 413.897 66.056 414.494 66.696C415.134 67.336 416.201 67.656 417.694 67.656V69C416.926 68.9573 415.731 68.9147 414.11 68.872C412.489 68.7867 410.846 68.744 409.182 68.744C407.518 68.744 405.833 68.7867 404.126 68.872C402.419 68.9147 401.139 68.9573 400.286 69V67.656C401.779 67.656 402.825 67.336 403.422 66.696C404.062 66.056 404.382 64.84 404.382 63.048V42.888C404.382 40.968 404.083 39.56 403.486 38.664C402.931 37.7253 401.865 37.256 400.286 37.256V35.912C401.651 36.04 402.974 36.104 404.254 36.104C406.046 36.104 407.71 36.04 409.246 35.912C410.825 35.7413 412.275 35.5067 413.598 35.208ZM436.986 35.016C440.74 35.016 443.684 36.1253 445.818 38.344C447.951 40.5627 449.018 44.1893 449.018 49.224H427.962L427.834 48.008H440.954C440.996 45.9173 440.868 43.9973 440.57 42.248C440.271 40.456 439.802 39.0267 439.162 37.96C438.522 36.8933 437.668 36.36 436.602 36.36C435.108 36.36 433.828 37.2987 432.762 39.176C431.738 41.0533 431.119 44.168 430.906 48.52L431.098 48.904C431.055 49.416 431.012 49.9493 430.97 50.504C430.97 51.0587 430.97 51.6347 430.97 52.232C430.97 55.176 431.375 57.5653 432.186 59.4C433.039 61.2347 434.106 62.5787 435.385 63.432C436.666 64.2427 437.967 64.648 439.29 64.648C440.186 64.648 441.103 64.52 442.042 64.264C443.023 63.9653 444.004 63.4533 444.986 62.728C445.967 61.96 446.884 60.8933 447.738 59.528L448.89 59.912C448.378 61.5333 447.567 63.112 446.458 64.648C445.348 66.184 443.94 67.4427 442.234 68.424C440.527 69.4053 438.479 69.896 436.09 69.896C433.188 69.896 430.628 69.2773 428.41 68.04C426.191 66.8027 424.442 64.9253 423.161 62.408C421.924 59.8907 421.306 56.6907 421.306 52.808C421.306 48.84 421.967 45.5333 423.29 42.888C424.655 40.2427 426.511 38.28 428.858 37C431.247 35.6773 433.956 35.016 436.986 35.016ZM465.396 35.016C467.188 35.016 468.745 35.2507 470.068 35.72C471.433 36.1467 472.414 36.5733 473.012 37C474.462 37.9813 475.358 37.3413 475.7 35.08H477.044C476.958 36.2747 476.894 37.7467 476.852 39.496C476.809 41.2027 476.788 43.4853 476.788 46.344H475.444C475.23 44.7653 474.825 43.208 474.228 41.672C473.63 40.136 472.756 38.8773 471.604 37.896C470.494 36.9147 469.044 36.424 467.252 36.424C466.014 36.424 464.969 36.7867 464.116 37.512C463.262 38.1947 462.836 39.1973 462.836 40.52C462.836 41.8 463.22 42.9307 463.988 43.912C464.756 44.8507 465.737 45.768 466.932 46.664C468.169 47.5173 469.449 48.4347 470.772 49.416C472.18 50.4827 473.46 51.5493 474.612 52.616C475.764 53.64 476.681 54.7707 477.364 56.008C478.046 57.2453 478.388 58.7173 478.388 60.424C478.388 62.344 477.833 64.0293 476.724 65.48C475.614 66.888 474.142 67.976 472.308 68.744C470.516 69.512 468.51 69.896 466.292 69.896C465.012 69.896 463.86 69.768 462.836 69.512C461.854 69.256 461.001 68.936 460.276 68.552C459.721 68.296 459.188 68.0613 458.676 67.848C458.206 67.592 457.758 67.3787 457.332 67.208C456.905 67.08 456.521 67.2293 456.18 67.656C455.881 68.0827 455.646 68.68 455.476 69.448H454.132C454.217 68.0827 454.281 66.4187 454.324 64.456C454.366 62.4933 454.388 59.8907 454.388 56.648H455.732C455.988 58.952 456.457 61 457.14 62.792C457.822 64.5413 458.74 65.928 459.892 66.952C461.086 67.9333 462.58 68.424 464.372 68.424C465.097 68.424 465.801 68.2747 466.484 67.976C467.166 67.6773 467.721 67.1867 468.148 66.504C468.617 65.8213 468.852 64.9467 468.852 63.88C468.852 62.0027 468.233 60.4453 466.996 59.208C465.801 57.9707 464.265 56.6267 462.388 55.176C461.022 54.0667 459.721 52.9787 458.484 51.912C457.289 50.8027 456.308 49.608 455.54 48.328C454.772 47.0053 454.388 45.512 454.388 43.848C454.388 41.928 454.9 40.3067 455.924 38.984C456.948 37.6613 458.292 36.68 459.956 36.04C461.662 35.3573 463.476 35.016 465.396 35.016ZM58.528 110.416V120.912H66.08V122.192H58.528V148.048C58.528 149.328 58.7627 150.245 59.232 150.8C59.7013 151.312 60.4053 151.568 61.344 151.568C62.112 151.568 62.88 151.291 63.648 150.736C64.416 150.139 65.0987 149.136 65.696 147.728L66.784 148.304C66.1013 150.224 65.056 151.803 63.648 153.04C62.2827 154.277 60.4053 154.896 58.016 154.896C56.608 154.896 55.3707 154.704 54.304 154.32C53.2373 153.979 52.3413 153.445 51.616 152.72C50.6773 151.781 50.0587 150.629 49.76 149.264C49.4613 147.856 49.312 146.043 49.312 143.824V122.192H43.936V120.912H49.312V112.464C51.104 112.464 52.7467 112.315 54.24 112.016C55.776 111.675 57.2053 111.141 58.528 110.416ZM84.298 120.016C87.4127 120.016 90.1433 120.592 92.49 121.744C94.8367 122.896 96.6713 124.752 97.994 127.312C99.3167 129.872 99.978 133.264 99.978 137.488C99.978 141.712 99.3167 145.104 97.994 147.664C96.6713 150.181 94.8367 152.016 92.49 153.168C90.1433 154.32 87.4127 154.896 84.298 154.896C81.2687 154.896 78.5593 154.32 76.17 153.168C73.8233 152.016 71.9673 150.181 70.602 147.664C69.2793 145.104 68.618 141.712 68.618 137.488C68.618 133.264 69.2793 129.872 70.602 127.312C71.9673 124.752 73.8233 122.896 76.17 121.744C78.5593 120.592 81.2687 120.016 84.298 120.016ZM84.298 121.296C82.5913 121.296 81.162 122.576 80.01 125.136C78.858 127.653 78.282 131.771 78.282 137.488C78.282 143.205 78.858 147.323 80.01 149.84C81.162 152.357 82.5913 153.616 84.298 153.616C86.0473 153.616 87.4767 152.357 88.586 149.84C89.738 147.323 90.314 143.205 90.314 137.488C90.314 131.771 89.738 127.653 88.586 125.136C87.4767 122.576 86.0473 121.296 84.298 121.296ZM150.783 120.208V147.024C150.783 148.944 151.082 150.373 151.679 151.312C152.276 152.208 153.343 152.656 154.879 152.656V154C153.556 153.872 152.234 153.808 150.911 153.808C149.119 153.808 147.455 153.872 145.919 154C144.383 154.128 142.932 154.363 141.567 154.704V148.944C140.543 151.077 139.114 152.613 137.279 153.552C135.487 154.448 133.482 154.896 131.263 154.896C129.471 154.896 128.02 154.661 126.911 154.192C125.802 153.723 124.927 153.125 124.287 152.4C123.562 151.589 123.05 150.523 122.751 149.2C122.452 147.877 122.303 146.171 122.303 144.08V127.888C122.303 125.968 122.004 124.56 121.407 123.664C120.852 122.725 119.786 122.256 118.207 122.256V120.912C119.572 121.04 120.895 121.104 122.175 121.104C123.967 121.104 125.631 121.04 127.167 120.912C128.746 120.741 130.196 120.507 131.519 120.208V146.704C131.519 147.771 131.604 148.709 131.775 149.52C131.988 150.331 132.372 150.971 132.927 151.44C133.482 151.867 134.292 152.08 135.359 152.08C136.511 152.08 137.535 151.76 138.431 151.12C139.37 150.48 140.116 149.605 140.671 148.496C141.268 147.344 141.567 146.064 141.567 144.656V127.888C141.567 125.968 141.268 124.56 140.671 123.664C140.116 122.725 139.05 122.256 137.471 122.256V120.912C138.836 121.04 140.159 121.104 141.439 121.104C143.231 121.104 144.895 121.04 146.431 120.912C148.01 120.741 149.46 120.507 150.783 120.208ZM170.396 120.016C172.188 120.016 173.745 120.251 175.068 120.72C176.433 121.147 177.414 121.573 178.012 122C179.462 122.981 180.358 122.341 180.7 120.08H182.044C181.958 121.275 181.894 122.747 181.852 124.496C181.809 126.203 181.788 128.485 181.788 131.344H180.444C180.23 129.765 179.825 128.208 179.228 126.672C178.63 125.136 177.756 123.877 176.604 122.896C175.494 121.915 174.044 121.424 172.252 121.424C171.014 121.424 169.969 121.787 169.116 122.512C168.262 123.195 167.836 124.197 167.836 125.52C167.836 126.8 168.22 127.931 168.988 128.912C169.756 129.851 170.737 130.768 171.932 131.664C173.169 132.517 174.449 133.435 175.772 134.416C177.18 135.483 178.46 136.549 179.612 137.616C180.764 138.64 181.681 139.771 182.364 141.008C183.046 142.245 183.388 143.717 183.388 145.424C183.388 147.344 182.833 149.029 181.724 150.48C180.614 151.888 179.142 152.976 177.308 153.744C175.516 154.512 173.51 154.896 171.292 154.896C170.012 154.896 168.86 154.768 167.836 154.512C166.854 154.256 166.001 153.936 165.276 153.552C164.721 153.296 164.188 153.061 163.676 152.848C163.206 152.592 162.758 152.379 162.332 152.208C161.905 152.08 161.521 152.229 161.18 152.656C160.881 153.083 160.646 153.68 160.476 154.448H159.132C159.217 153.083 159.281 151.419 159.324 149.456C159.366 147.493 159.388 144.891 159.388 141.648H160.732C160.988 143.952 161.457 146 162.14 147.792C162.822 149.541 163.74 150.928 164.892 151.952C166.086 152.933 167.58 153.424 169.372 153.424C170.097 153.424 170.801 153.275 171.484 152.976C172.166 152.677 172.721 152.187 173.148 151.504C173.617 150.821 173.852 149.947 173.852 148.88C173.852 147.003 173.233 145.445 171.996 144.208C170.801 142.971 169.265 141.627 167.388 140.176C166.022 139.067 164.721 137.979 163.484 136.912C162.289 135.803 161.308 134.608 160.54 133.328C159.772 132.005 159.388 130.512 159.388 128.848C159.388 126.928 159.9 125.307 160.924 123.984C161.948 122.661 163.292 121.68 164.956 121.04C166.662 120.357 168.476 120.016 170.396 120.016ZM203.798 120.016C207.553 120.016 210.497 121.125 212.63 123.344C214.763 125.563 215.83 129.189 215.83 134.224H194.774L194.646 133.008H207.766C207.809 130.917 207.681 128.997 207.382 127.248C207.083 125.456 206.614 124.027 205.974 122.96C205.334 121.893 204.481 121.36 203.414 121.36C201.921 121.36 200.641 122.299 199.574 124.176C198.55 126.053 197.931 129.168 197.718 133.52L197.91 133.904C197.867 134.416 197.825 134.949 197.782 135.504C197.782 136.059 197.782 136.635 197.782 137.232C197.782 140.176 198.187 142.565 198.998 144.4C199.851 146.235 200.918 147.579 202.198 148.432C203.478 149.243 204.779 149.648 206.102 149.648C206.998 149.648 207.915 149.52 208.854 149.264C209.835 148.965 210.817 148.453 211.798 147.728C212.779 146.96 213.697 145.893 214.55 144.528L215.702 144.912C215.19 146.533 214.379 148.112 213.27 149.648C212.161 151.184 210.753 152.443 209.046 153.424C207.339 154.405 205.291 154.896 202.902 154.896C200.001 154.896 197.441 154.277 195.222 153.04C193.003 151.803 191.254 149.925 189.974 147.408C188.737 144.891 188.118 141.691 188.118 137.808C188.118 133.84 188.779 130.533 190.102 127.888C191.467 125.243 193.323 123.28 195.67 122C198.059 120.677 200.769 120.016 203.798 120.016ZM251.114 120.016C252.778 120.016 254.292 120.208 255.658 120.592C257.066 120.933 258.218 121.381 259.114 121.936C260.223 122.619 261.076 123.472 261.674 124.496C262.314 125.477 262.634 126.629 262.634 127.952C262.634 129.445 262.164 130.683 261.226 131.664C260.287 132.603 259.071 133.072 257.578 133.072C256.084 133.072 254.89 132.645 253.994 131.792C253.098 130.939 252.65 129.787 252.65 128.336C252.65 126.971 253.076 125.84 253.93 124.944C254.783 124.005 255.764 123.387 256.874 123.088C256.532 122.661 256.02 122.299 255.338 122C254.655 121.701 253.887 121.552 253.034 121.552C251.711 121.552 250.538 121.936 249.514 122.704C248.532 123.472 247.7 124.539 247.018 125.904C246.335 127.269 245.802 128.869 245.418 130.704C245.076 132.539 244.906 134.544 244.906 136.72C244.906 140.005 245.311 142.587 246.122 144.464C246.975 146.341 248.042 147.664 249.322 148.432C250.644 149.2 252.01 149.584 253.418 149.584C254.228 149.584 255.103 149.456 256.042 149.2C257.023 148.944 258.004 148.432 258.986 147.664C260.01 146.896 260.948 145.808 261.802 144.4L262.89 144.784C262.42 146.363 261.652 147.941 260.586 149.52C259.519 151.099 258.132 152.4 256.426 153.424C254.719 154.405 252.628 154.896 250.154 154.896C247.38 154.896 244.863 154.299 242.602 153.104C240.383 151.867 238.591 149.989 237.226 147.472C235.903 144.912 235.242 141.627 235.242 137.616C235.242 133.776 235.924 130.555 237.29 127.952C238.698 125.307 240.596 123.323 242.986 122C245.375 120.677 248.084 120.016 251.114 120.016ZM275.056 154.448C273.136 154.448 271.536 154.085 270.256 153.36C268.976 152.635 268.037 151.675 267.44 150.48C266.842 149.243 266.544 147.899 266.544 146.448C266.544 144.613 266.949 143.12 267.76 141.968C268.613 140.816 269.701 139.877 271.024 139.152C272.346 138.427 273.733 137.829 275.184 137.36C276.677 136.891 278.085 136.443 279.408 136.016C280.773 135.547 281.861 135.013 282.672 134.416C283.525 133.776 283.952 132.965 283.952 131.984V126.992C283.952 125.883 283.76 124.901 283.376 124.048C283.034 123.152 282.48 122.469 281.712 122C280.986 121.531 280.026 121.296 278.832 121.296C277.978 121.296 277.125 121.424 276.272 121.68C275.418 121.893 274.714 122.277 274.16 122.832C275.354 123.259 276.272 123.92 276.912 124.816C277.594 125.669 277.936 126.651 277.936 127.76C277.936 129.211 277.424 130.363 276.4 131.216C275.418 132.069 274.245 132.496 272.88 132.496C271.344 132.496 270.17 132.027 269.36 131.088C268.592 130.107 268.208 128.933 268.208 127.568C268.208 126.331 268.506 125.307 269.104 124.496C269.744 123.685 270.618 122.917 271.728 122.192C272.922 121.509 274.352 120.976 276.016 120.592C277.722 120.208 279.557 120.016 281.52 120.016C283.482 120.016 285.253 120.229 286.832 120.656C288.41 121.04 289.733 121.765 290.8 122.832C291.781 123.813 292.421 125.029 292.72 126.48C293.018 127.888 293.168 129.68 293.168 131.856V149.264C293.168 150.331 293.274 151.077 293.488 151.504C293.701 151.888 294.064 152.08 294.576 152.08C294.96 152.08 295.322 151.973 295.664 151.76C296.048 151.547 296.453 151.291 296.88 150.992L297.52 152.08C296.624 152.848 295.578 153.445 294.384 153.872C293.232 154.256 291.93 154.448 290.48 154.448C288.901 154.448 287.642 154.235 286.704 153.808C285.765 153.339 285.082 152.72 284.656 151.952C284.272 151.184 284.08 150.288 284.08 149.264C283.056 150.885 281.818 152.165 280.368 153.104C278.917 154 277.146 154.448 275.056 154.448ZM279.6 150.352C280.453 150.352 281.221 150.16 281.904 149.776C282.629 149.349 283.312 148.667 283.952 147.728V134.608C283.568 135.248 283.034 135.824 282.352 136.336C281.669 136.848 280.944 137.381 280.176 137.936C279.408 138.448 278.661 139.024 277.936 139.664C277.253 140.304 276.698 141.093 276.272 142.032C275.845 142.971 275.632 144.101 275.632 145.424C275.632 147.088 275.994 148.325 276.72 149.136C277.445 149.947 278.405 150.352 279.6 150.352ZM312.405 103.888V148.048C312.405 149.84 312.703 151.056 313.301 151.696C313.941 152.336 315.007 152.656 316.501 152.656V154C315.69 153.957 314.474 153.915 312.853 153.872C311.231 153.787 309.589 153.744 307.925 153.744C306.261 153.744 304.575 153.787 302.869 153.872C301.205 153.915 299.946 153.957 299.093 154V152.656C300.586 152.656 301.631 152.336 302.229 151.696C302.869 151.056 303.189 149.84 303.189 148.048V111.568C303.189 109.648 302.89 108.24 302.293 107.344C301.738 106.405 300.671 105.936 299.093 105.936V104.592C300.458 104.72 301.781 104.784 303.061 104.784C304.81 104.784 306.474 104.72 308.053 104.592C309.631 104.421 311.082 104.187 312.405 103.888ZM335.111 120.016C338.865 120.016 341.809 121.125 343.943 123.344C346.076 125.563 347.143 129.189 347.143 134.224H326.087L325.959 133.008H339.079C339.121 130.917 338.993 128.997 338.695 127.248C338.396 125.456 337.927 124.027 337.287 122.96C336.647 121.893 335.793 121.36 334.727 121.36C333.233 121.36 331.953 122.299 330.887 124.176C329.863 126.053 329.244 129.168 329.031 133.52L329.223 133.904C329.18 134.416 329.137 134.949 329.095 135.504C329.095 136.059 329.095 136.635 329.095 137.232C329.095 140.176 329.5 142.565 330.311 144.4C331.164 146.235 332.231 147.579 333.51 148.432C334.791 149.243 336.092 149.648 337.415 149.648C338.311 149.648 339.228 149.52 340.167 149.264C341.148 148.965 342.129 148.453 343.111 147.728C344.092 146.96 345.009 145.893 345.863 144.528L347.015 144.912C346.503 146.533 345.692 148.112 344.583 149.648C343.473 151.184 342.065 152.443 340.359 153.424C338.652 154.405 336.604 154.896 334.215 154.896C331.313 154.896 328.753 154.277 326.535 153.04C324.316 151.803 322.567 149.925 321.286 147.408C320.049 144.891 319.431 141.691 319.431 137.808C319.431 133.84 320.092 130.533 321.415 127.888C322.78 125.243 324.636 123.28 326.983 122C329.372 120.677 332.081 120.016 335.111 120.016ZM374.282 120.016C376.074 120.016 377.524 120.251 378.634 120.72C379.786 121.147 380.682 121.744 381.322 122.512C382.004 123.323 382.495 124.368 382.794 125.648C383.135 126.928 383.306 128.656 383.306 130.832V148.048C383.306 149.84 383.604 151.056 384.201 151.696C384.842 152.336 385.908 152.656 387.402 152.656V154C386.591 153.957 385.375 153.915 383.754 153.872C382.132 153.787 380.532 153.744 378.954 153.744C377.332 153.744 375.732 153.787 374.154 153.872C372.618 153.915 371.444 153.957 370.634 154V152.656C371.914 152.656 372.81 152.336 373.322 151.696C373.834 151.056 374.09 149.84 374.09 148.048V128.144C374.09 127.077 373.983 126.16 373.77 125.392C373.556 124.581 373.172 123.963 372.618 123.536C372.063 123.067 371.231 122.832 370.122 122.832C368.97 122.832 367.903 123.152 366.922 123.792C365.983 124.432 365.215 125.328 364.618 126.48C364.063 127.589 363.786 128.848 363.786 130.256V148.048C363.786 149.84 364.042 151.056 364.554 151.696C365.108 152.336 366.004 152.656 367.242 152.656V154C366.474 153.957 365.343 153.915 363.85 153.872C362.399 153.787 360.884 153.744 359.306 153.744C357.684 153.744 356.02 153.787 354.314 153.872C352.607 153.915 351.327 153.957 350.474 154V152.656C351.967 152.656 353.012 152.336 353.61 151.696C354.25 151.056 354.57 149.84 354.57 148.048V127.888C354.57 125.968 354.271 124.56 353.674 123.664C353.119 122.725 352.052 122.256 350.474 122.256V120.912C351.839 121.04 353.162 121.104 354.442 121.104C356.234 121.104 357.898 121.04 359.434 120.912C361.012 120.741 362.463 120.507 363.786 120.208V125.968C364.852 123.792 366.303 122.256 368.138 121.36C369.972 120.464 372.02 120.016 374.282 120.016ZM421.274 103.888V146.96C421.274 148.88 421.573 150.309 422.17 151.248C422.767 152.144 423.834 152.592 425.37 152.592V153.936C424.047 153.808 422.725 153.744 421.402 153.744C419.61 153.744 417.925 153.808 416.346 153.936C414.81 154.064 413.381 154.299 412.058 154.64V111.568C412.058 109.648 411.759 108.24 411.162 107.344C410.607 106.405 409.541 105.936 407.962 105.936V104.592C409.327 104.72 410.65 104.784 411.93 104.784C413.679 104.784 415.343 104.72 416.922 104.592C418.501 104.421 419.951 104.187 421.274 103.888ZM404.954 120.016C406.831 120.016 408.474 120.336 409.882 120.976C411.333 121.573 412.463 122.597 413.274 124.048L412.506 124.752C411.951 123.728 411.205 123.003 410.266 122.576C409.37 122.107 408.41 121.872 407.386 121.872C405.21 121.872 403.482 123.152 402.202 125.712C400.922 128.229 400.303 132.133 400.346 137.424C400.346 141.051 400.581 143.952 401.05 146.128C401.562 148.261 402.266 149.797 403.162 150.736C404.101 151.675 405.167 152.144 406.362 152.144C407.813 152.144 409.114 151.568 410.266 150.416C411.418 149.264 412.037 147.707 412.122 145.744L412.442 147.984C411.802 150.245 410.757 151.973 409.306 153.168C407.898 154.32 406.042 154.896 403.738 154.896C401.221 154.896 398.959 154.277 396.954 153.04C394.991 151.803 393.455 149.904 392.346 147.344C391.237 144.741 390.682 141.392 390.682 137.296C390.682 133.413 391.301 130.213 392.538 127.696C393.775 125.136 395.461 123.216 397.594 121.936C399.77 120.656 402.223 120.016 404.954 120.016ZM436.868 154.448C434.948 154.448 433.348 154.085 432.068 153.36C430.788 152.635 429.849 151.675 429.252 150.48C428.655 149.243 428.356 147.899 428.356 146.448C428.356 144.613 428.761 143.12 429.572 141.968C430.425 140.816 431.513 139.877 432.836 139.152C434.159 138.427 435.545 137.829 436.996 137.36C438.489 136.891 439.897 136.443 441.22 136.016C442.585 135.547 443.673 135.013 444.484 134.416C445.337 133.776 445.764 132.965 445.764 131.984V126.992C445.764 125.883 445.572 124.901 445.188 124.048C444.847 123.152 444.292 122.469 443.524 122C442.799 121.531 441.839 121.296 440.644 121.296C439.791 121.296 438.937 121.424 438.084 121.68C437.231 121.893 436.527 122.277 435.972 122.832C437.167 123.259 438.084 123.92 438.724 124.816C439.407 125.669 439.748 126.651 439.748 127.76C439.748 129.211 439.236 130.363 438.212 131.216C437.231 132.069 436.057 132.496 434.692 132.496C433.156 132.496 431.983 132.027 431.172 131.088C430.404 130.107 430.02 128.933 430.02 127.568C430.02 126.331 430.319 125.307 430.916 124.496C431.556 123.685 432.431 122.917 433.54 122.192C434.735 121.509 436.164 120.976 437.828 120.592C439.535 120.208 441.369 120.016 443.332 120.016C445.295 120.016 447.065 120.229 448.644 120.656C450.223 121.04 451.545 121.765 452.612 122.832C453.593 123.813 454.233 125.029 454.532 126.48C454.831 127.888 454.98 129.68 454.98 131.856V149.264C454.98 150.331 455.087 151.077 455.3 151.504C455.513 151.888 455.876 152.08 456.388 152.08C456.772 152.08 457.135 151.973 457.476 151.76C457.86 151.547 458.265 151.291 458.692 150.992L459.332 152.08C458.436 152.848 457.391 153.445 456.196 153.872C455.044 154.256 453.743 154.448 452.292 154.448C450.713 154.448 449.455 154.235 448.516 153.808C447.577 153.339 446.895 152.72 446.468 151.952C446.084 151.184 445.892 150.288 445.892 149.264C444.868 150.885 443.631 152.165 442.18 153.104C440.729 154 438.959 154.448 436.868 154.448ZM441.412 150.352C442.265 150.352 443.033 150.16 443.716 149.776C444.441 149.349 445.124 148.667 445.764 147.728V134.608C445.38 135.248 444.847 135.824 444.164 136.336C443.481 136.848 442.756 137.381 441.988 137.936C441.22 138.448 440.473 139.024 439.748 139.664C439.065 140.304 438.511 141.093 438.084 142.032C437.657 142.971 437.444 144.101 437.444 145.424C437.444 147.088 437.807 148.325 438.532 149.136C439.257 149.947 440.217 150.352 441.412 150.352ZM483.177 120.016C484.542 120.016 485.652 120.315 486.505 120.912C487.358 121.467 487.977 122.192 488.361 123.088C488.788 123.984 489.001 124.923 489.001 125.904C489.001 127.483 488.532 128.784 487.593 129.808C486.697 130.789 485.502 131.28 484.009 131.28C482.516 131.28 481.342 130.917 480.489 130.192C479.678 129.424 479.273 128.421 479.273 127.184C479.273 125.989 479.529 125.008 480.041 124.24C480.596 123.429 481.278 122.747 482.089 122.192C481.492 122.021 480.894 122.043 480.297 122.256C479.486 122.384 478.718 122.725 477.993 123.28C477.268 123.792 476.649 124.453 476.137 125.264C475.625 126.032 475.22 126.885 474.921 127.824C474.622 128.72 474.473 129.595 474.473 130.448V147.408C474.473 149.456 474.964 150.843 475.945 151.568C476.969 152.293 478.484 152.656 480.489 152.656V154C479.508 153.957 478.078 153.915 476.201 153.872C474.324 153.787 472.361 153.744 470.313 153.744C468.606 153.744 466.878 153.787 465.129 153.872C463.38 153.915 462.057 153.957 461.161 154V152.656C462.654 152.656 463.7 152.336 464.297 151.696C464.937 151.056 465.257 149.84 465.257 148.048V127.888C465.257 125.968 464.958 124.56 464.361 123.664C463.806 122.725 462.74 122.256 461.161 122.256V120.912C462.526 121.04 463.849 121.104 465.129 121.104C466.921 121.104 468.585 121.04 470.121 120.912C471.7 120.741 473.15 120.507 474.473 120.208V126.16C474.985 125.008 475.668 123.963 476.521 123.024C477.374 122.085 478.356 121.36 479.465 120.848C480.574 120.293 481.812 120.016 483.177 120.016Z" fill="white"/>
</svg>
