<svg xmlns="http://www.w3.org/2000/svg" width="1080" height="1080" viewBox="0 0 1080 1080" fill="none"><g clip-path="url(#clip0_1_64)"><path d="M0 0H434.328H646.312H1080V440.022V636.261V1080H624.322H456.34H0V631.658V444.309V0Z" fill="white"></path><path d="M636.161 506.417C648.485 504.45 666.826 506.851 675.786 516.242C686.438 527.407 685.178 543.454 685.188 557.698L685.167 582.472C691.406 588.568 702.754 598.757 709.531 604.172C716.012 598.936 728.325 588.036 734.163 582.077C734.057 567.079 734.041 552.087 734.121 537.094C725.33 528.24 714.266 519.309 704.958 510.645C710.575 510.074 716.65 510.384 722.366 510.134C739.652 509.381 759.934 507.691 777.099 508.387C777.642 532.412 777.147 558.236 777.115 582.372C780.585 586.206 803.524 606.013 803.994 607.89C798.931 608.919 785.848 608.613 779.862 608.613H738.16L665.091 608.607C652.382 608.613 636.82 609.05 624.48 608.344C628.272 602.917 637.379 592.982 641.983 587.25C642.015 586.796 642.041 586.343 642.062 585.884C642.468 575.696 641.725 564.342 642.131 554.011C642.874 535.164 626.353 528.214 613.106 540.538C604.109 548.902 605.939 569.494 606.008 581.792L606.087 587.477C611.729 594.047 618.384 601.62 623.6 608.402C613.517 608.866 602.042 608.607 591.891 608.607H536.625L476.932 608.597C472.44 608.597 446.537 609.177 444.173 607.774C444.247 607.405 444.319 607.036 444.393 606.667C452.597 599.432 464.131 589.512 471.695 582.156C471.269 567.817 471.463 551.433 471.682 537.042C463.568 528.979 450.953 518.066 442.151 510.606C447.925 510.17 454.002 510.46 459.823 510.127C464.342 510.111 469.508 508.961 473.966 509.08C487.443 509.441 501.236 507.809 514.641 508.43C514.893 532.897 514.639 557.84 514.634 582.346C520.122 588.094 532.454 599.237 538.671 604.273C546.676 597.106 555.235 589.676 562.961 582.272L562.982 536.92C554.048 528.34 543.038 518.7 533.582 510.665C539.267 510.133 545.268 510.364 551.037 510.092C567.923 509.293 587.203 507.744 603.946 508.311C603.888 516.518 604.004 524.725 604.283 532.928C612.109 517.936 618.78 508.973 636.161 506.417Z" fill="black"></path><path d="M406.336 461.644C415.957 461.013 420.999 461.649 431.214 464.087C448.306 468.166 464.46 489.012 443.801 500.856C437.72 504.343 426.51 502.716 419.526 499.944C420.204 494.59 422.334 482.482 414.458 481.607C412.556 481.413 410.663 482.048 409.262 483.349C404.707 487.52 405.414 501.953 405.336 508.065C415.548 508.506 426.03 507.983 436.486 508.457C434.029 515.396 432.363 523.025 430.244 530.207C421.968 530.286 413.692 530.329 405.416 530.329L405.467 582.826L428.082 599.817C430.494 601.62 436.008 605.38 437.739 607.294L437.471 608.022C435.612 608.697 257.103 609.156 253.149 608.033L252.951 607.368C256.643 601.414 264.546 593.794 269.077 587.566L269.512 586.965C269.561 577.035 271.888 546.233 265.396 539.125C262.577 536.04 258.171 534.684 254.091 534.558C249.411 534.41 245.088 535.955 241.736 539.251C230.475 550.331 233.494 573.228 233.566 587.651C238.908 593.357 246.213 602.179 251.106 608.307C244.097 608.818 235.737 608.618 228.603 608.602H186.211C182.254 608.602 164.78 609.393 162.985 607.495C163.566 605.48 186.952 585.636 190.452 582.298L190.444 537.01C181.64 528.282 170.618 519.027 161.237 510.672C170.886 509.635 181.966 510.259 192.078 509.071C201.335 507.983 212.94 509.636 222.533 508.252C224.668 507.944 229.267 508.226 231.486 508.305L231.559 533.572C234.441 527.277 238.009 521.72 242.638 516.514C258.457 498.729 305.449 502.947 310.664 529.163C313.748 544.662 312.722 566.024 312.676 582.499C319.378 589.159 328.46 596.816 335.645 603.176C343.959 596.41 353.781 589.349 362.417 582.847C362.012 566.346 362.128 546.882 362.453 530.408C353.522 530.049 344.595 530.603 335.581 529.996C337.533 523.426 340.337 514.5 342.904 508.259C349.73 508.236 356.556 508.175 363.38 508.077C363.028 496.156 363.214 486.004 371.434 476.419C380.344 466.029 393.213 462.662 406.336 461.644Z" fill="black"></path><path d="M854.497 466.075C855.895 466.197 855.868 466.179 857.171 466.688C858.568 470.55 858.784 501.994 858.642 508.058C893.362 509.029 928.694 507.577 963.462 508.195C970.276 508.316 976.973 508.126 983.807 508.445C979.203 514.785 970.697 524.287 965.44 530.555C973.002 542.737 981.165 556.406 989.255 568.086C994.565 556.838 999.96 543.644 1005.03 532.127C999.026 524.56 991 515.592 984.567 508.347C992.255 508.016 1057.22 507.536 1059.71 509.268C1058.32 514.01 1036.72 529.791 1033.88 535.855C1030.37 543.359 1027.28 551.834 1024.13 559.475C1015.7 579.925 1007.58 600.655 999.121 621.058C993.927 633.429 986.46 646.587 973.15 651.507C959.402 656.585 941.635 656.933 928.019 651.164C916.951 646.471 906.34 634.954 912.289 622.361C915.274 616.043 922.677 611.133 929.201 609.013L929.913 608.787C937.696 606.994 943.803 607.373 951.196 610.495C949.904 615.853 945.058 637.342 958.737 632.691C964.433 630.751 967.702 619.903 969.78 614.155L933.725 560.825C930.941 556.696 918.126 537.142 915.442 534.653C908.666 528.372 894.18 517.92 886.343 512.108C883.881 516.321 879.994 525.123 877.553 529.975C873.033 530.539 863.504 530.339 858.663 530.344C858.99 546.175 858.189 562.175 859.164 577.916C859.808 588.22 867.934 593.183 875.306 584.645C880.59 578.528 878.618 566.626 878.033 559.158C888.927 563.63 891.833 568.313 892.018 580.115C892.471 588.178 890.045 597.865 883.933 603.487C868.525 617.409 837.854 616.112 823.394 601.167C813.665 591.11 815.637 579.487 815.653 566.546L815.801 530.429C808.386 530.086 800.671 530.387 793.041 530.07C792.882 526.688 793.077 523.338 793.209 519.955C822.087 510.43 840.138 492.095 854.497 466.075Z" fill="black"></path><path d="M37.7137 467.941C75.4586 466.939 113.815 468.642 151.621 467.828C153.87 467.779 157.067 467.568 159.037 468.595L159.225 469.568C156.829 472.792 153.797 474.534 151.174 477.258C143.526 485.203 130.358 494.094 123.901 502.434L123.906 575.232C128.867 579.994 158.777 605.464 159.552 607.706L158.658 608.549C145.18 608.713 43.504 609.936 37.4869 607.953L37.0905 607.147C39.3367 604.389 44.2144 600.734 46.9858 598.166C54.8226 590.894 64.8511 583.258 72.1838 575.664L72.7771 575.047C72.399 550.932 72.7165 525.957 72.7001 501.776C69.1284 498.38 36.8237 469.596 36.627 468.965L37.7137 467.941Z" fill="black"></path><path d="M646.455 882.452C669.584 881.281 688.21 895.366 691.089 918.759C692.445 929.312 689.465 939.959 682.836 948.275C674.214 959.307 661.79 964.317 648.232 965.93C637.49 966.494 627.37 964.116 618.811 957.329C610.163 950.463 604.626 940.407 603.445 929.422C600.434 902.559 621.348 885.073 646.455 882.452Z" fill="black"></path><path d="M645.042 902.422C669.052 900.308 679.461 938.899 650.568 945.649C623.415 948.248 615.822 907.717 645.042 902.422Z" fill="white"></path><path d="M618.943 230.498C624.175 232.155 626.374 236.287 628.973 240.761C624.364 245.502 620.109 250.685 615.373 255.259C608.644 261.765 601.636 267.945 594.881 274.446C597.006 277.155 599.611 280.171 600.381 283.507C598.915 289.61 540.19 341.592 533.282 351.581C529.922 356.446 518.823 357.512 512.344 356.93C508.207 361.394 491.5 379.341 487.199 381.197C474.898 386.508 477.651 382.2 465.637 393.935C464.467 395.393 463.068 397.791 461.179 397.665L460.41 396.072C460.85 393.109 470.779 384.403 473.717 381.348C476.274 363.721 485.122 361.463 496.665 349.871C504.393 342.111 498.133 335.319 504.393 327.158C507.515 323.088 513.068 318.736 516.87 315.015L543.48 288.83C554.122 278.515 562.502 268.093 574.562 258.219C577.109 257.793 581.771 261.944 584.365 263.774C592.133 256.417 610.801 233.642 618.943 230.498Z" fill="black"></path><path d="M496.489 355.27C500.646 354.945 503.527 357.855 501.745 361.94C499.785 366.432 494.132 372.315 489.508 374.009C486.673 373.798 485.857 373.588 483.947 371.557C481.717 365.676 492.239 358.372 496.489 355.27Z" fill="white"></path><path d="M747.03 838.682C769.674 837.722 787.008 850.98 789.919 874.083C793.02 898.62 770.017 920.199 746.508 922.108C735.022 922.351 726.922 921.227 717.594 913.686C709.472 906.92 704.004 896.69 703.102 886.196C700.951 861.274 723.263 840.602 747.03 838.682Z" fill="black"></path><path d="M743.776 859.845C755.009 858.305 765.403 866.057 767.137 877.257C768.867 888.463 761.305 898.989 750.131 900.919C742.727 902.201 735.212 899.385 730.471 893.558C725.73 887.725 724.502 879.794 727.26 872.807C730.018 865.819 736.335 860.862 743.776 859.845Z" fill="white"></path><path d="M915.3 669.505C921.623 668.978 932.122 669.263 938.54 669.505C932.671 683.88 928.768 695.53 921.966 710.111C896.173 765.028 858.753 813.691 812.299 852.72L805.565 858.299C802.675 855.083 795.408 844.436 793.304 840.57C806.003 829.069 815.548 821.385 828.162 808.523C863.082 772.922 900.123 717.24 915.3 669.505Z" fill="black"></path><path d="M140.669 669.363C147.966 669.131 156.097 669.299 163.458 669.299C185.566 733.815 228.694 791.364 279.9 835.745C278.186 839.304 275.082 843.75 272.858 847.146L268.416 853.875C261.106 848.939 245.766 834.031 239.429 827.666C194.848 783.137 161.063 728.984 140.669 669.363Z" fill="black"></path><path d="M389.882 864.163C395.349 867.08 404.31 870.302 410.78 873.534C409.916 902.016 412.004 931.273 411.183 959.85C404.583 957.509 396.521 953.59 389.693 950.848C389.122 946.097 389.297 938.524 389.267 933.546C383.851 931.463 377.582 928.61 372.174 926.306C368.125 924.465 364.023 922.741 359.874 921.143C355.921 924.565 351.932 929.116 347.782 932.845C342.296 930.514 331.061 925.968 326.375 922.968C342.883 907.189 360.049 891.944 376.595 876.192C380.868 872.121 385.337 867.908 389.882 864.163Z" fill="black"></path><path d="M389.983 891.116C390.693 894.217 389.744 910.19 389.628 915.089C386.124 913.338 381.869 911.598 378.236 910.011L372.889 907.886C378.243 902.501 384.364 896.068 389.983 891.116Z" fill="white"></path><path d="M191.524 303.5C194.089 304.634 204.595 314.306 207.906 317.131C204.7 323.361 197.364 333.839 193.296 340.741C184.081 356.432 176.002 372.762 169.12 389.607C163.656 403.041 158.89 416.749 154.841 430.674C154.083 433.202 153.216 436.037 152.746 438.612C151.804 443.77 152.144 444.464 146.693 444.628C140.779 444.681 134.864 444.657 128.95 444.556C132.264 432.926 134.818 422.111 138.576 410.474C150.854 372.4 168.697 336.352 191.524 303.5Z" fill="black"></path><path d="M889.065 307.219C891.823 308.342 896.922 317.807 898.81 320.807C922.583 358.925 939.806 400.757 949.757 444.566L934.321 444.622L927.582 444.601C926.079 436.026 922.351 424.658 919.688 416.231C908.455 380.653 893.167 352.575 873.619 321.218C877.02 317.611 885.183 310.424 889.065 307.219Z" fill="black"></path><path d="M559.264 898.298C566.072 897.761 581.012 897.908 587.867 898.109C587.862 903.915 588.241 910.285 588.442 916.133C581.977 916.977 571.192 917.061 564.601 917.119C564.242 937.116 566.346 957.556 565.803 978.133C559.274 978.434 552.735 978.571 546.196 978.544C544.519 978.565 544.572 978.587 542.969 978.117C542.078 975.248 541.044 923.658 541.16 918.053C532.702 917.705 525.145 918.817 516.838 918.501L516.355 900.271C529.801 898.794 545.469 899.042 559.264 898.298Z" fill="black"></path><path d="M441.862 886.365C464.811 889.856 489.163 894.908 512.199 899.005C511.402 903.741 510.543 913.275 507.737 916.434C506.989 916.813 505.838 917.372 505.012 917.198C498.501 915.785 491.953 914.467 485.379 913.365C483.033 924.729 481.013 936.768 478.946 948.222C477.522 956.443 475.979 964.638 474.317 972.817C469.601 972.49 455.058 970.618 451.851 967.834C452.303 962.149 454.364 952.467 455.452 946.566L462.242 909.378C454.993 907.516 446.084 906.145 438.475 904.489C439.682 898.531 440.754 892.355 441.862 886.365Z" fill="black"></path><path d="M300.245 809.768C303.784 811.445 314.886 819.93 318.716 822.725C331.711 832.317 344.8 841.783 357.982 851.117C355.251 855.673 350.168 862.729 346.617 866.637C341.428 862.123 333.259 856.644 327.556 852.62L306.82 881.26C302.951 886.639 296.158 896.606 291.823 901.114C286.94 897.328 277.278 890.831 273.436 886.961C279.08 880.147 284.926 871.752 290.181 864.506C296.269 856.111 302.922 847.336 308.62 838.777C290.106 824.665 284.958 829.528 300.245 809.768Z" fill="black"></path><path d="M474.942 230.773C475.191 230.764 475.439 230.739 475.688 230.745C483.333 230.91 504.499 257.457 511.142 263.795C514.719 261.528 516.427 259.685 520.521 257.529C528.072 263.632 539.162 275.175 545.885 282.269L545.5 282.733C540.053 289.13 534.02 292.326 529.448 298.905C528.077 300.601 522.109 305.495 519.312 308.551C515.219 304.848 496.889 287.806 495.418 283.926C495.887 279.97 498.243 277.676 500.722 274.505C493.796 267.947 486.684 261.578 479.863 254.935C475.22 250.413 471.177 245.394 466.542 240.822C469.406 235.867 470.449 234.417 474.942 230.773Z" fill="black"></path><path d="M575.432 312.639C583.458 318.135 593.409 326.859 594.575 336.951C594.981 337.613 594.875 345.098 594.744 344.921C602.237 354.779 614.545 361.353 620.146 372.459C620.91 373.976 621.49 379.115 621.749 380.953C625.751 385.965 630.624 389.433 634.584 394.323C635.307 395.22 634.911 396.736 634.611 397.82L633.904 398.095C629.538 393.821 626.738 390.819 622.055 386.616L618.743 384.048C616.686 383.773 612.04 383.203 610.49 382.285C601.599 377.028 590.778 364.794 583.406 357.31C574.072 357.296 566.278 356.474 559.723 349.131C557.872 347.058 550.99 340.021 550.246 337.72C552.382 332.943 570.19 318.033 574.905 313.187L575.432 312.639Z" fill="black"></path><path d="M596.093 355.276C601.726 355.319 610.168 363.311 611.935 368.472C612.446 369.967 610.933 372.377 610.015 373.522C605 374.305 602.147 372.387 598.551 368.907C594.068 364.572 591.284 360.429 596.093 355.276Z" fill="white"></path><path d="M370.085 140.803C371.658 142.169 376.999 180.603 377.255 185.029C373.888 187.109 368.93 189.333 365.272 191.101C359.881 185.097 353.407 178.742 347.713 172.924C349.163 180.643 350.385 190.105 351.36 197.955C347.719 200.037 343.334 202.18 339.566 204.137C331.843 196.99 322.758 187.317 315.209 179.729C312.92 177.62 309.679 175.234 309.191 172.258C310.462 169.208 315.99 167.522 319.372 166.029C325.604 171.877 332.68 178.963 338.054 185.513C337.262 178.726 334.308 165.314 335.059 158.748C335.223 157.312 342.654 154.212 344.713 153.279C350.148 158.123 358.142 166.977 363.572 172.48C362.173 165.998 360.247 152.18 359.638 145.799C363.622 143.6 365.874 142.529 370.085 140.803Z" fill="black"></path><path d="M598.271 110.059C601.325 110.648 603.054 110.696 606.113 110.823C603.903 113.698 601.388 116.639 599.062 119.448C614.577 137.368 599.147 159.855 577.072 156.171C574.098 155.674 571.635 154.751 568.809 153.712C567.638 155.412 566.383 156.725 565.012 158.247C562.402 159.198 559.528 158.307 556.669 157.807C559.085 154.192 560.466 152.837 563.53 149.697C554.249 137.278 554.391 122.978 569.679 114.597C577.199 110.474 586.005 112.341 593.805 115.016C595.139 113.356 596.811 111.636 598.271 110.059Z" fill="black"></path><path d="M577.32 123.437C580.352 123.193 583.263 123.389 586.301 123.524C582.704 127.669 579.092 131.795 575.453 135.902C574.341 137.315 573.766 138.424 572.094 138.942L570.997 138.258C568.719 132.843 572.632 126.364 577.32 123.437Z" fill="white"></path><path d="M590.298 129.546L591.348 130.341C594.332 139.17 587.994 145.847 579.066 145.931C577.974 145.544 578.459 145.85 577.615 144.987C578.538 141.684 587.603 132.434 590.298 129.546Z" fill="white"></path><path d="M261.089 213.27C266.337 213.651 270.601 214.919 274.808 218.222C279.349 221.756 282.269 226.975 282.905 232.694C284.598 247.306 272.76 258.216 258.957 260.017C253.536 259.85 249.492 258.924 245.001 255.598C240.156 252 236.984 246.584 236.215 240.598C234.403 225.698 247.004 214.55 261.089 213.27Z" fill="black"></path><path d="M257.653 225.178C270.607 225.023 277.215 242.311 262.033 247.853C248.574 248.468 241.673 231.78 257.653 225.178Z" fill="white"></path><path d="M819.782 220.57C849.493 217.875 861.363 258.107 831.036 266.736C818.944 269.11 806.224 259.899 802.913 248.404C801.267 242.759 801.932 236.69 804.769 231.538C808.239 225.343 813.212 222.403 819.782 220.57Z" fill="black"></path><path d="M822.018 233.287C825.794 232.062 829.934 232.983 832.834 235.692C835.734 238.4 836.937 242.471 835.977 246.321C835.012 250.172 832.038 253.197 828.204 254.22C824.961 255.086 821.501 254.414 818.822 252.398C816.144 250.382 814.535 247.246 814.467 243.893C814.372 239.08 817.436 234.772 822.018 233.287Z" fill="white"></path><path d="M294.892 182.613C309.675 181.039 317.56 190.617 313.213 204.759C318.158 206.805 323.13 208.787 328.126 210.705C324.928 213.446 320.29 216.459 316.745 218.908C309.85 216.124 305.84 211.807 299.538 217.161L304.667 224.391L305.234 225.7C304.436 228.272 297.889 232.075 295.348 233.759C286.918 222.286 278.831 209.793 270.488 198.073C276.589 193.343 287.983 185.085 294.892 182.613Z" fill="black"></path><path d="M295.217 194.026C298.063 193.978 302.561 195.266 301.924 199.125C301.158 203.767 297.703 205.797 294.122 208.317C292.77 207.618 288.311 200.695 287.149 198.982C290.373 196.532 291.594 195.849 295.217 194.026Z" fill="white"></path><path d="M614.904 116.456C620.736 116.417 631.13 119.133 636.884 120.79C653.374 125.537 655.831 144.378 639.294 151.881C641.377 156.592 643.365 161.562 644.567 166.568L637.58 165.442C635.76 165.053 633.63 164.412 631.805 163.916C629.675 160.035 627.592 148.532 621.522 150.467C620.425 152.645 619.602 157.523 618.437 160.742L618.179 161.443C614.334 160.208 609.952 159.224 606.018 158.322C608.254 144.981 612.51 130.35 614.904 116.456Z" fill="black"></path><path d="M625.672 128.965C632.929 129.604 642.078 132.357 634.627 140.972C630.772 142.573 627.56 140.991 623.315 139.83C624.201 136.776 625.013 132.19 625.672 128.965Z" fill="white"></path><path d="M751.359 461.591C779.124 459.912 787.809 494.846 758.152 502.609C725.799 504.141 722.772 466.561 751.359 461.591Z" fill="black"></path><path d="M488.574 461.609C517.158 459.692 524.877 495.395 495.853 502.532C484.108 503.247 472.482 498.662 469.673 486.039C468.605 481.096 469.586 475.931 472.392 471.725C476.174 465.988 481.969 462.855 488.574 461.609Z" fill="black"></path><path d="M220.969 241.286C222.98 242.162 250.605 267.619 253.269 270.39C250.827 273.406 249.013 275.301 246.263 278.064C239.28 277.966 225.024 277.713 218.453 276.695C223.699 281.807 229.362 286.166 234.374 291.663C231.977 294.664 228.799 297.668 226.044 300.409C223.563 299.077 197.62 275.374 193.622 271.785C196.03 268.142 197.324 266.907 200.423 263.999C208.472 263.565 219.377 264.715 228.109 264.809C223.303 260.052 217.615 255.252 212.496 250.776C215.253 246.718 217.481 244.65 220.969 241.286Z" fill="black"></path><path d="M703.904 141.342C707.912 142.68 709.647 143.546 713.433 145.509C715.906 152.403 718.886 165.138 720.837 172.503L729.501 152.967C733.482 154.492 737.163 156.086 741.076 157.795C739.9 161.948 736.24 169.379 734.3 173.589C730.714 181.349 727.175 189.133 723.695 196.941C721.222 197.002 716.175 193.981 713.929 192.698C711.35 186.097 708.666 174.02 706.256 166.507L697.913 185.346C693.109 183.741 690.166 182.424 686.016 179.588C692.017 168.88 698.15 152.933 703.904 141.342Z" fill="black"></path><path d="M786.428 186.494C787.556 186.901 795.234 192.803 796.764 193.953C793.753 198.254 790.04 203.034 786.871 207.288C794.227 205.912 801.758 204.198 809.151 203.212C812.737 205.401 817.077 208.738 820.178 211.584C813.771 213.7 802.253 215.599 795.208 216.932C795.155 225.438 795.762 235.337 795.952 244.031C796.104 245.1 796.136 244.53 795.725 245.729C793.051 245.845 785.79 239.569 783.48 237.68C783.026 232.647 783.163 223.65 783.084 218.337C776.023 220.784 775.533 222.435 771.219 228.589C767.786 226.444 764.633 223.851 760.883 221.526C762.724 217.82 768.008 211.025 770.618 207.518C775.775 200.583 781.044 193.227 786.428 186.494Z" fill="black"></path><path d="M401.77 130.854C404.639 132.144 429.538 160.112 434.167 164.778C429.834 167.092 425.727 168.223 421.051 169.654L415.968 163.442L409.31 165.543L399.67 168.609C399.458 172.079 399.215 173.727 398.561 177.132C394.446 178.888 390.742 180.063 386.337 180.726L390.464 134.423C394.207 133.154 397.977 131.964 401.77 130.854Z" fill="black"></path><path d="M400.774 145.902C402.524 147.352 407.491 152.657 407.891 154.829L406.754 155.596L400.404 157.571L400.774 145.902Z" fill="white"></path><path d="M661.653 126.722C664.031 127.144 692.223 135.645 692.597 137.212C696.183 152.194 677.51 142.383 670.76 140.107L668.867 145.483C674.689 147.545 680.553 149.49 686.454 151.316L683.506 161.216C677.695 159.355 671.904 157.412 666.146 155.387C664.754 156.71 664.427 159.746 664.031 161.699C670.776 163.982 677.563 166.151 684.381 168.206C683.511 171.413 682.341 174.952 681.36 178.16L648.285 167.133C651.855 155.463 657.197 137.834 661.653 126.722Z" fill="black"></path><path d="M858.505 257.481C875 256.779 885.727 270.822 885.247 286.429C881.924 286.313 877.938 285.893 874.573 285.623C874.099 279.074 871.668 271.882 864.448 270.215C861.653 269.557 858.711 270.075 856.306 271.648C852.325 274.215 850.985 277.713 850.015 282.048C851.122 285.944 854.381 294.71 859.665 291.24C862.234 288.961 864.232 287.349 866.974 285.278C869.469 288 871.926 290.962 874.331 293.781C870.033 297.999 864.912 302.134 860.266 306.013C834.326 298.906 828.494 263.183 858.505 257.481Z" fill="black"></path><path d="M748.749 168.833C761.621 167.642 770.001 173.573 777.046 183.692C773.882 186.272 771.92 187.81 768.498 189.987C764.87 185.179 760.208 178.246 753.3 180.212C750.558 184.53 766.457 193.11 766.605 199.814C766.8 208.644 761.859 212.957 753.564 214.024C742.173 213.057 733.467 206.119 727.571 196.684C729.337 195.059 733.873 191.956 736.003 190.414C738.872 194.632 747.072 205.352 752.81 202.462C754.55 199.062 741.509 188.915 739.399 181.442L739.215 180.763C740.876 174.385 742.885 171.688 748.749 168.833Z" fill="black"></path><path d="M589.887 763.715C605.939 763.188 611.592 776.972 605.939 791.042C604.115 795.593 599.801 797.818 595.308 799.242C578.122 800.708 573.059 783.664 580.031 770.159C582.04 766.267 585.789 764.712 589.887 763.715Z" fill="black"></path><path d="M590.899 771.899C599.838 771.989 598.039 786.069 593.789 791.274C584.782 790.098 586.296 777.03 590.899 771.899Z" fill="white"></path><path d="M460.189 116.705L461.175 117.049C461.617 119.499 453.584 143.317 452.388 147.469C453.574 152.261 454.796 156.876 455.539 161.765C451.758 163.256 447.09 164.107 443.055 164.978C440.308 152.936 441.45 151.533 432.938 142.625C428.485 138.053 421.151 130.953 418.006 125.773C422.069 125.164 426.654 124.045 430.71 123.156C434.874 127.013 439.925 132.778 443.882 137.101C445.712 131.094 447.654 125.121 449.706 119.185C453.62 117.63 456.112 117.212 460.189 116.705Z" fill="black"></path><path d="M654.107 763.762C659.813 763.441 662.687 763.604 667.918 766.004C667 768.414 665.656 770.919 664.49 773.239C660.271 771.841 651.317 770.544 650.073 776.667C652.467 777.326 660.419 774.784 663.863 777.178C667.401 779.63 668.577 783.591 669.437 787.419C669.02 788.975 668.424 790.747 667.939 792.302C663.029 799.427 655.52 801.979 647.631 797.723C643.623 795.53 640.702 791.775 639.563 787.345C636.483 775.717 642.732 766.568 654.107 763.762Z" fill="black"></path><path d="M652.045 784.197C655.114 784.065 658.067 783.749 659.148 787.24C658.905 789.18 658.452 789.481 657.213 790.973C654.122 791.142 651.333 791.416 650.188 787.941C650.447 785.906 650.742 785.737 652.045 784.197Z" fill="white"></path><path d="M429.843 763.741C438.99 763.625 448.14 763.636 457.287 763.762L457.266 771.984C452.588 772.037 444.135 770.866 440.808 773.318C440.079 775.037 440.137 774.183 440.568 775.955C443.16 778.217 451.371 777.389 455.291 777.4L455.341 785.537C450.828 785.821 445.014 785.695 440.404 785.721C440.334 787.957 440.248 788.469 440.732 790.604C442.538 791.343 454.92 791.079 457.739 791.068L458.038 799.221C450.011 799.654 437.822 799.4 429.77 799.232C429.712 787.398 429.736 775.57 429.843 763.741Z" fill="black"></path><path d="M523.303 109.915C527.107 109.823 531.083 109.88 534.901 109.877C534.779 120.499 535.581 130.9 535.381 141.914L555.214 142.011C555.298 144.624 556.116 151.459 554.212 152.939C543.691 152.826 533.239 153.268 522.742 153.101C522.794 144.194 521.036 117.994 522.358 110.557L523.303 109.915Z" fill="black"></path><path d="M471.666 763.762C478.973 763.388 481.846 764.042 488.421 766.579C487.66 768.846 486.012 772.258 484.996 774.536C481.11 772.843 476.065 770.892 471.883 772.342C470.439 773.719 470.888 772.912 470.443 774.816C472.917 778.787 488.684 777.415 489.574 785.779C490.56 795.05 483.891 798.435 475.897 799.416C468.696 799.369 465.505 798.604 459.171 795.487L462.617 787.962C466.568 789.513 476.457 793.557 479.408 789.017C477.222 785.067 461.445 785.31 460.077 776.825C458.758 768.64 464.878 765.434 471.666 763.762Z" fill="black"></path><path d="M620.557 763.741C620.995 763.715 621.427 763.689 621.86 763.673C633.846 763.251 642.262 772.875 633.197 783.327C630.909 785.964 627.386 788.685 624.676 791C628.958 791.005 633.24 791.053 637.522 791.147L637.516 799.205C631.985 799.495 624.881 799.342 619.233 799.348L610.153 799.321C610.079 797.328 610.174 794.828 610.195 792.787C613.971 788.922 628.124 778.496 625.393 772.938C621.343 770.528 618.817 772.954 615.721 775.343C612.863 773.84 610.516 772.443 607.764 770.771C612.336 766.025 613.986 764.833 620.557 763.741Z" fill="black"></path><path d="M557.745 763.726C562.802 763.562 568.012 763.921 571.672 767.712C580.189 776.535 568.324 785.795 562.976 790.994C567.179 791.01 571.387 791.068 575.59 791.163L575.58 799.216C569.747 799.495 562.544 799.337 556.611 799.348H548.3C548.2 797.244 548.269 795.013 548.284 792.898C551.976 788.732 564.521 779.103 563.794 773.655C560.424 769.748 556.263 773.002 553.242 775.311L545.811 770.766C549.856 766.404 551.944 764.833 557.745 763.726Z" fill="black"></path><path d="M490.641 763.736C500.733 763.472 511.965 763.641 522.036 763.762L522.034 771.931L511.351 772L511.381 788.88L511.372 799.269C508.111 799.406 504.272 799.3 500.961 799.29L500.976 772.026L490.627 771.989C490.488 769.337 490.602 766.415 490.641 763.736Z" fill="black"></path><path d="M524.636 788.105C526.644 787.451 528.847 787.936 530.397 789.37C531.942 790.805 532.596 792.967 532.09 795.018C531.589 797.07 530.017 798.688 527.982 799.247C524.933 800.086 521.773 798.335 520.865 795.308C519.956 792.281 521.63 789.08 524.636 788.105Z" fill="black"></path></g><defs><clipPath id="clip0_1_64"><rect width="1080" height="1080" rx="540" fill="white"></rect></clipPath></defs></svg>